<mxfile host="app.diagrams.net" modified="2023-05-12T03:36:42.957Z" agent="Mozilla/5.0 (Windows NT 10.0; Win64; x64; rv:109.0) Gecko/20100101 Firefox/113.0" etag="YGs5PiJdS3j93Mlg2YxH" version="21.2.9" type="device">
  <diagram name="Page-1" id="OtUMB2tLBQ-O7a9zXMLh">
    <mxGraphModel dx="1434" dy="774" grid="1" gridSize="10" guides="1" tooltips="1" connect="1" arrows="1" fold="1" page="1" pageScale="1" pageWidth="850" pageHeight="1100" background="#f0f0f0" math="0" shadow="0">
      <root>
        <mxCell id="0" />
        <mxCell id="1" parent="0" />
        <mxCell id="SdQNqddWvItie9GcpCU8-2" value="&lt;div&gt;Customer&lt;/div&gt;" style="swimlane;horizontal=0;whiteSpace=wrap;html=1;fillColor=#dae8fc;strokeColor=#6c8ebf;swimlaneFillColor=#FAFAFA;gradientColor=none;" parent="1" vertex="1">
          <mxGeometry x="240" y="210" width="1210" height="145" as="geometry" />
        </mxCell>
        <mxCell id="SdQNqddWvItie9GcpCU8-7" value="Change data" style="ellipse;whiteSpace=wrap;html=1;aspect=fixed;fillColor=#ffe6cc;strokeColor=#d79b00;" parent="SdQNqddWvItie9GcpCU8-2" vertex="1">
          <mxGeometry x="40" y="42.5" width="60" height="60" as="geometry" />
        </mxCell>
        <mxCell id="cAwKn6To6EhfXgqqOtdB-1" value="" style="edgeStyle=orthogonalEdgeStyle;rounded=0;orthogonalLoop=1;jettySize=auto;html=1;" parent="SdQNqddWvItie9GcpCU8-2" source="SdQNqddWvItie9GcpCU8-7" target="SdQNqddWvItie9GcpCU8-9" edge="1">
          <mxGeometry relative="1" as="geometry">
            <mxPoint x="180" y="185" as="targetPoint" />
            <mxPoint x="130" y="185" as="sourcePoint" />
            <Array as="points">
              <mxPoint x="90" y="80" />
              <mxPoint x="90" y="80" />
            </Array>
          </mxGeometry>
        </mxCell>
        <mxCell id="SdQNqddWvItie9GcpCU8-9" value="Contact CTS to update data" style="rounded=1;whiteSpace=wrap;html=1;fillColor=#fff2cc;strokeColor=#d6b656;" parent="SdQNqddWvItie9GcpCU8-2" vertex="1">
          <mxGeometry x="130" y="37.5" width="95" height="70" as="geometry" />
        </mxCell>
        <mxCell id="9Hv8hVeZl6TZAGIdS-Sh-5" value="&lt;div&gt;End&lt;/div&gt;" style="ellipse;whiteSpace=wrap;html=1;aspect=fixed;fillColor=#ffe6cc;strokeColor=#d79b00;" parent="SdQNqddWvItie9GcpCU8-2" vertex="1">
          <mxGeometry x="1130" y="42.5" width="60" height="60" as="geometry" />
        </mxCell>
        <mxCell id="OKPKHBUDPECPRLu1dc9P-6" value="" style="edgeStyle=orthogonalEdgeStyle;rounded=0;orthogonalLoop=1;jettySize=auto;html=1;fillColor=#fff2cc;strokeColor=#000000;" edge="1" parent="SdQNqddWvItie9GcpCU8-2" source="OKPKHBUDPECPRLu1dc9P-3" target="OKPKHBUDPECPRLu1dc9P-5">
          <mxGeometry relative="1" as="geometry" />
        </mxCell>
        <mxCell id="OKPKHBUDPECPRLu1dc9P-3" value="Receive &quot;Update customer data&quot; form" style="whiteSpace=wrap;html=1;rounded=1;fillColor=#fff2cc;strokeColor=#d6b656;" vertex="1" parent="SdQNqddWvItie9GcpCU8-2">
          <mxGeometry x="340" y="42.5" width="120" height="60" as="geometry" />
        </mxCell>
        <mxCell id="OKPKHBUDPECPRLu1dc9P-9" value="" style="edgeStyle=orthogonalEdgeStyle;rounded=0;orthogonalLoop=1;jettySize=auto;html=1;fillColor=#fff2cc;strokeColor=#000000;" edge="1" parent="SdQNqddWvItie9GcpCU8-2" source="OKPKHBUDPECPRLu1dc9P-5" target="OKPKHBUDPECPRLu1dc9P-8">
          <mxGeometry relative="1" as="geometry" />
        </mxCell>
        <mxCell id="OKPKHBUDPECPRLu1dc9P-5" value="Fill in &quot;Update customer data&quot; form" style="whiteSpace=wrap;html=1;rounded=1;fillColor=#fff2cc;strokeColor=#d6b656;" vertex="1" parent="SdQNqddWvItie9GcpCU8-2">
          <mxGeometry x="490" y="42.5" width="130" height="60" as="geometry" />
        </mxCell>
        <mxCell id="OKPKHBUDPECPRLu1dc9P-8" value="Submit form with updated data" style="whiteSpace=wrap;html=1;rounded=1;fillColor=#fff2cc;strokeColor=#d6b656;" vertex="1" parent="SdQNqddWvItie9GcpCU8-2">
          <mxGeometry x="650" y="42.5" width="120" height="60" as="geometry" />
        </mxCell>
        <mxCell id="OKPKHBUDPECPRLu1dc9P-25" value="" style="edgeStyle=orthogonalEdgeStyle;rounded=0;orthogonalLoop=1;jettySize=auto;html=1;fillColor=#fff2cc;strokeColor=#000000;" edge="1" parent="SdQNqddWvItie9GcpCU8-2" source="OKPKHBUDPECPRLu1dc9P-23" target="9Hv8hVeZl6TZAGIdS-Sh-5">
          <mxGeometry relative="1" as="geometry" />
        </mxCell>
        <mxCell id="OKPKHBUDPECPRLu1dc9P-23" value="Receive data&amp;nbsp; update confirmation" style="whiteSpace=wrap;html=1;rounded=1;fillColor=#fff2cc;strokeColor=#d6b656;" vertex="1" parent="SdQNqddWvItie9GcpCU8-2">
          <mxGeometry x="940" y="37.5" width="160" height="70" as="geometry" />
        </mxCell>
        <mxCell id="SdQNqddWvItie9GcpCU8-10" style="edgeStyle=orthogonalEdgeStyle;rounded=0;orthogonalLoop=1;jettySize=auto;html=1;entryX=0.5;entryY=0;entryDx=0;entryDy=0;fillColor=#fff2cc;strokeColor=#000000;" parent="1" source="SdQNqddWvItie9GcpCU8-9" target="SdQNqddWvItie9GcpCU8-11" edge="1">
          <mxGeometry relative="1" as="geometry">
            <mxPoint x="560" y="410" as="targetPoint" />
          </mxGeometry>
        </mxCell>
        <mxCell id="SdQNqddWvItie9GcpCU8-5" value="Management" style="swimlane;horizontal=0;whiteSpace=wrap;html=1;startSize=20;fillColor=#dae8fc;strokeColor=#6c8ebf;swimlaneFillColor=#FAFAFA;gradientColor=none;" parent="1" vertex="1">
          <mxGeometry x="240" y="380" width="1210" height="140" as="geometry">
            <mxRectangle x="20" width="40" height="100" as="alternateBounds" />
          </mxGeometry>
        </mxCell>
        <mxCell id="SdQNqddWvItie9GcpCU8-24" value="" style="edgeStyle=orthogonalEdgeStyle;rounded=0;orthogonalLoop=1;jettySize=auto;html=1;fillColor=#fff2cc;strokeColor=#000000;" parent="SdQNqddWvItie9GcpCU8-5" source="SdQNqddWvItie9GcpCU8-11" target="SdQNqddWvItie9GcpCU8-23" edge="1">
          <mxGeometry relative="1" as="geometry" />
        </mxCell>
        <mxCell id="SdQNqddWvItie9GcpCU8-11" value="Receive change of data request" style="rounded=1;whiteSpace=wrap;html=1;fillColor=#fff2cc;strokeColor=#d6b656;" parent="SdQNqddWvItie9GcpCU8-5" vertex="1">
          <mxGeometry x="130" y="40" width="95" height="70" as="geometry" />
        </mxCell>
        <mxCell id="SdQNqddWvItie9GcpCU8-14" value="Send &quot;Update customer data&quot; form" style="whiteSpace=wrap;html=1;rounded=1;fillColor=#fff2cc;strokeColor=#d6b656;" parent="SdQNqddWvItie9GcpCU8-5" vertex="1">
          <mxGeometry x="350" y="40" width="100" height="70" as="geometry" />
        </mxCell>
        <mxCell id="SdQNqddWvItie9GcpCU8-25" value="" style="edgeStyle=orthogonalEdgeStyle;rounded=0;orthogonalLoop=1;jettySize=auto;html=1;fillColor=#fff2cc;strokeColor=#000000;" parent="SdQNqddWvItie9GcpCU8-5" source="SdQNqddWvItie9GcpCU8-23" target="SdQNqddWvItie9GcpCU8-14" edge="1">
          <mxGeometry relative="1" as="geometry" />
        </mxCell>
        <mxCell id="SdQNqddWvItie9GcpCU8-23" value="Verify customer identity" style="rounded=1;whiteSpace=wrap;html=1;fillColor=#fff2cc;strokeColor=#d6b656;" parent="SdQNqddWvItie9GcpCU8-5" vertex="1">
          <mxGeometry x="250" y="40" width="70" height="70" as="geometry" />
        </mxCell>
        <mxCell id="OKPKHBUDPECPRLu1dc9P-18" value="" style="edgeStyle=orthogonalEdgeStyle;rounded=0;orthogonalLoop=1;jettySize=auto;html=1;fillColor=#fff2cc;strokeColor=#000000;" edge="1" parent="SdQNqddWvItie9GcpCU8-5" source="SdQNqddWvItie9GcpCU8-28" target="OKPKHBUDPECPRLu1dc9P-17">
          <mxGeometry relative="1" as="geometry" />
        </mxCell>
        <mxCell id="SdQNqddWvItie9GcpCU8-28" value="Receive form with updated data" style="whiteSpace=wrap;html=1;rounded=1;fillColor=#fff2cc;strokeColor=#d6b656;" parent="SdQNqddWvItie9GcpCU8-5" vertex="1">
          <mxGeometry x="665" y="40" width="90" height="70" as="geometry" />
        </mxCell>
        <mxCell id="9Hv8hVeZl6TZAGIdS-Sh-7" value="" style="edgeStyle=orthogonalEdgeStyle;rounded=0;orthogonalLoop=1;jettySize=auto;html=1;entryX=0;entryY=0.5;entryDx=0;entryDy=0;" parent="SdQNqddWvItie9GcpCU8-5" source="9Hv8hVeZl6TZAGIdS-Sh-3" target="SdQNqddWvItie9GcpCU8-11" edge="1">
          <mxGeometry relative="1" as="geometry">
            <mxPoint x="90" y="120" as="targetPoint" />
          </mxGeometry>
        </mxCell>
        <mxCell id="9Hv8hVeZl6TZAGIdS-Sh-3" value="Start" style="ellipse;whiteSpace=wrap;html=1;aspect=fixed;fillColor=#ffe6cc;strokeColor=#d79b00;" parent="SdQNqddWvItie9GcpCU8-5" vertex="1">
          <mxGeometry x="50" y="45" width="60" height="60" as="geometry" />
        </mxCell>
        <mxCell id="9Hv8hVeZl6TZAGIdS-Sh-15" value="&lt;div&gt;End&lt;/div&gt;" style="ellipse;whiteSpace=wrap;html=1;aspect=fixed;fillColor=#ffe6cc;strokeColor=#d79b00;" parent="SdQNqddWvItie9GcpCU8-5" vertex="1">
          <mxGeometry x="1130" y="45" width="60" height="60" as="geometry" />
        </mxCell>
        <mxCell id="OKPKHBUDPECPRLu1dc9P-20" value="" style="edgeStyle=orthogonalEdgeStyle;rounded=0;orthogonalLoop=1;jettySize=auto;html=1;fillColor=#fff2cc;strokeColor=#000000;" edge="1" parent="SdQNqddWvItie9GcpCU8-5" source="OKPKHBUDPECPRLu1dc9P-17" target="OKPKHBUDPECPRLu1dc9P-19">
          <mxGeometry relative="1" as="geometry" />
        </mxCell>
        <mxCell id="OKPKHBUDPECPRLu1dc9P-17" value="Update customer data in the database" style="whiteSpace=wrap;html=1;rounded=1;fillColor=#fff2cc;strokeColor=#d6b656;" vertex="1" parent="SdQNqddWvItie9GcpCU8-5">
          <mxGeometry x="780" y="40" width="130" height="70" as="geometry" />
        </mxCell>
        <mxCell id="OKPKHBUDPECPRLu1dc9P-22" style="edgeStyle=orthogonalEdgeStyle;rounded=0;orthogonalLoop=1;jettySize=auto;html=1;exitX=1;exitY=0.5;exitDx=0;exitDy=0;entryX=0;entryY=0.5;entryDx=0;entryDy=0;fillColor=#fff2cc;strokeColor=#000000;" edge="1" parent="SdQNqddWvItie9GcpCU8-5" source="OKPKHBUDPECPRLu1dc9P-19" target="9Hv8hVeZl6TZAGIdS-Sh-15">
          <mxGeometry relative="1" as="geometry" />
        </mxCell>
        <mxCell id="OKPKHBUDPECPRLu1dc9P-19" value="Inform user that his data was updated succesfully" style="whiteSpace=wrap;html=1;rounded=1;fillColor=#fff2cc;strokeColor=#d6b656;" vertex="1" parent="SdQNqddWvItie9GcpCU8-5">
          <mxGeometry x="940" y="40" width="160" height="70" as="geometry" />
        </mxCell>
        <mxCell id="OKPKHBUDPECPRLu1dc9P-4" value="" style="edgeStyle=orthogonalEdgeStyle;rounded=0;orthogonalLoop=1;jettySize=auto;html=1;fillColor=#fff2cc;strokeColor=#000000;" edge="1" parent="1" source="SdQNqddWvItie9GcpCU8-14" target="OKPKHBUDPECPRLu1dc9P-3">
          <mxGeometry relative="1" as="geometry" />
        </mxCell>
        <mxCell id="OKPKHBUDPECPRLu1dc9P-16" style="edgeStyle=orthogonalEdgeStyle;rounded=0;orthogonalLoop=1;jettySize=auto;html=1;exitX=0.5;exitY=1;exitDx=0;exitDy=0;fillColor=#fff2cc;strokeColor=#000000;" edge="1" parent="1" source="OKPKHBUDPECPRLu1dc9P-8" target="SdQNqddWvItie9GcpCU8-28">
          <mxGeometry relative="1" as="geometry" />
        </mxCell>
        <mxCell id="OKPKHBUDPECPRLu1dc9P-24" style="edgeStyle=orthogonalEdgeStyle;rounded=0;orthogonalLoop=1;jettySize=auto;html=1;exitX=0.5;exitY=0;exitDx=0;exitDy=0;fillColor=#fff2cc;strokeColor=#000000;" edge="1" parent="1" source="OKPKHBUDPECPRLu1dc9P-19" target="OKPKHBUDPECPRLu1dc9P-23">
          <mxGeometry relative="1" as="geometry" />
        </mxCell>
        <mxCell id="OKPKHBUDPECPRLu1dc9P-27" value="&lt;font style=&quot;font-size: 18px;&quot;&gt;CTS Update Customer Data Process&lt;/font&gt;" style="rounded=1;whiteSpace=wrap;html=1;fillColor=#f5f5f5;fontColor=#333333;strokeColor=#666666;shadow=1;" vertex="1" parent="1">
          <mxGeometry x="660" y="130" width="370" height="60" as="geometry" />
        </mxCell>
      </root>
    </mxGraphModel>
  </diagram>
</mxfile>
